{"accessors" : [{"bufferView" : 0, "byteOffset" : 0, "componentType" : 5123, "count" : 90432, "type" : "SCALAR", "max" : [64391], "min" : [0]}, {"bufferView" : 1, "byteOffset" : 0, "componentType" : 5126, "count" : 64392, "type" : "VEC3", "max" : [0.18620233237743378, 0.0751335471868515, 0.1961386352777481], "min" : [-0.1862037628889084, -0.06768935918807983, -0.16213102638721466], "name" : "POSITION"}, {"bufferView" : 1, "byteOffset" : 12, "componentType" : 5126, "count" : 64392, "type" : "VEC3", "max" : [0.9996570348739624, 0.9999780654907227, 0.9999020099639893], "min" : [-0.9995439648628235, -0.999984860420227, -1.0000035762786865], "name" : "NORMAL"}, {"bufferView" : 1, "byteOffset" : 24, "componentType" : 5126, "count" : 64392, "type" : "VEC2", "max" : [0.9818000197410583, 0.9807000160217285], "min" : [0.01510000042617321, 0.01789999008178711], "name" : "TEXCOORD_0"}], "asset" : {"generator" : "Aspose.3D 22.10", "version" : "2.0"}, "buffers" : [{"uri" : "data:application/octet-stream;base64,", "byteLength" : 3074696}], "bufferViews" : [{"buffer" : 0, "byteOffset" : 0, "byteLength" : 180864, "target" : 34963}, {"buffer" : 0, "byteOffset" : 180868, "byteLength" : 2893824, "byteStride" : 32, "target" : 34962}], "materials" : [{"name" : "13550_Gatto_Rombi_Mask_v1", "pbrMetallicRoughness" : {"baseColorFactor" : [0.8000000715255737, 0.19996942579746246, 0, 1], "metallicFactor" : 0, "roughnessFactor" : 0.20000000298023224}, "emissiveFactor" : [0, 0, 0], "alphaMode" : "OPAQUE", "doubleSided" : true}], "meshes" : [{"primitives" : [{"attributes" : {"POSITION" : 1, "NORMAL" : 2, "TEXCOORD_0" : 3}, "indices" : 0, "material" : 0, "mode" : 4}]}], "nodes" : [{"mesh" : 0, "name" : "Mask"}], "scene" : 0, "scenes" : [{"nodes" : [0]}]}