{"accessors" : [{"bufferView" : 0, "byteOffset" : 0, "componentType" : 5123, "count" : 738, "type" : "SCALAR", "max" : [737], "min" : [0]}, {"bufferView" : 1, "byteOffset" : 0, "componentType" : 5126, "count" : 738, "type" : "VEC3", "max" : [11.435046195983887, 0.8871241807937622, 0.9017810225486755], "min" : [-11.435046195983887, -6.323805332183838, -6.127792835235596], "name" : "POSITION"}, {"bufferView" : 1, "byteOffset" : 12, "componentType" : 5126, "count" : 738, "type" : "VEC3", "max" : [0.9376242160797119, 0.9800326228141785, 0.8265606164932251], "min" : [-0.9376241564750671, 0.29675808548927307, -0.8669437170028687], "name" : "NORMAL"}, {"bufferView" : 0, "byteOffset" : 1476, "componentType" : 5123, "count" : 3165, "type" : "SCALAR", "max" : [3164], "min" : [0]}, {"bufferView" : 2, "byteOffset" : 0, "componentType" : 5126, "count" : 3165, "type" : "VEC3", "max" : [13.313898086547852, 1, 1.4945865869522095], "min" : [-13.313898086547852, -126.5296859741211, -6.554940700531006], "name" : "POSITION"}, {"bufferView" : 2, "byteOffset" : 12, "componentType" : 5126, "count" : 3165, "type" : "VEC3", "max" : [0.99955815076828, 1.0000044107437134, 1.0000044107437134], "min" : [-0.99955815076828, -1.0000044107437134, -0.9998695254325867], "name" : "NORMAL"}], "asset" : {"generator" : "Aspose.3D 22.7", "version" : "2.0"}, "buffers" : [{"uri" : "data:application/octet-stream;base64,", "byteLength" : 101492}], "bufferViews" : [{"buffer" : 0, "byteOffset" : 0, "byteLength" : 7808, "target" : 34963}, {"buffer" : 0, "byteOffset" : 7812, "byteLength" : 17712, "byteStride" : 24, "target" : 34962}, {"buffer" : 0, "byteOffset" : 25528, "byteLength" : 75960, "byteStride" : 24, "target" : 34962}], "materials" : [{"name" : "Material.002", "pbrMetallicRoughness" : {"baseColorFactor" : [0, 0, 0, 1], "metallicFactor" : 0, "roughnessFactor" : 0}, "emissiveFactor" : [0, 0, 0], "alphaMode" : "OPAQUE", "doubleSided" : false}, {"name" : "Material.004", "pbrMetallicRoughness" : {"baseColorFactor" : [0.8000000715255737, 0, 0.01704915054142475, 1], "metallicFactor" : 0, "roughnessFactor" : 0}, "emissiveFactor" : [0, 0, 0], "alphaMode" : "OPAQUE", "doubleSided" : false}], "meshes" : [{"primitives" : [{"attributes" : {"POSITION" : 1, "NORMAL" : 2}, "indices" : 0, "material" : 0, "mode" : 4}, {"attributes" : {"POSITION" : 4, "NORMAL" : 5}, "indices" : 3, "material" : 1, "mode" : 4}], "name" : "Cube.001"}], "nodes" : [{"matrix" : [28.59277704805614, -0.19203666585405538, 0.018106270636326433, 0, -0.001458424476254539, 0.34538863716297097, 5.966313569780195, 0, 0.19276209074424647, 28.54498834256717, -1.6524162495341557, 0, 0, 99.44487762451172, 0, 1], "mesh" : 0, "name" : "Cube"}], "scene" : 0, "scenes" : [{"nodes" : [0]}]}